<svg width="45" height="45" viewBox="0 0 45 45" fill="none" xmlns="http://www.w3.org/2000/svg">
<g clip-path="url(#clip0_119_54)">
<path d="M22.4235 0C11.799 0 11.6849 4.12405 11.6849 4.97291C11.6849 6.26073 11.6849 10.125 11.6849 10.125H22.628V11.6718C22.628 11.6718 11.234 11.6718 7.33827 11.6718C4.08641 11.6718 0 13.6489 0 22.4104C0 30.4585 3.18764 33.5708 6.40473 33.5708C7.35995 33.5708 10.2273 33.5708 10.2273 33.5708C10.2273 33.5708 10.2273 29.576 10.2273 28.2015C10.2273 25.9552 11.3404 21.7968 16.5297 21.7968C23.0384 21.7968 24.6997 21.7968 27.3833 21.7968C28.9796 21.7968 33.4812 21.103 33.4812 15.9034C33.4812 10.4003 33.4812 8.58477 33.4812 5.99564C33.4816 4.70577 33.2611 0 22.4235 0ZM16.3894 3.46459C17.4784 3.46459 18.3584 4.34414 18.3584 5.43355C18.3584 6.52214 17.4784 7.4025 16.3894 7.4025C15.3004 7.4025 14.4205 6.52255 14.4205 5.43355C14.4205 4.34414 15.3004 3.46459 16.3894 3.46459Z" fill="url(#paint0_linear_119_54)"/>
<path d="M22.5764 45C33.196 45 33.3282 40.7982 33.3282 40.0271C33.3282 38.7393 33.3282 34.875 33.3282 34.875H22.3719V33.3282C22.3719 33.3282 33.8395 33.3282 37.6617 33.3282C40.9381 33.3282 44.9999 31.3016 44.9999 22.5896C44.9999 13.0488 40.6889 11.4292 38.5952 11.4292C37.6396 11.4292 34.7727 11.4292 34.7727 11.4292C34.7727 11.4292 34.7727 15.6085 34.7727 16.7985C34.7727 19.0448 33.6964 23.2032 28.4702 23.2032C21.9616 23.2032 20.5028 23.2032 17.6162 23.2032C16.024 23.2032 11.5183 23.9789 11.5183 29.0966C11.5183 35.0182 11.5183 36.5686 11.5183 39.0044C11.5183 41.1439 12.8258 45 22.5764 45ZM28.6109 41.5354C27.5219 41.5354 26.642 40.6555 26.642 39.5665C26.642 38.4775 27.5215 37.5975 28.6109 37.5975C29.6995 37.5975 30.5799 38.4775 30.5799 39.5665C30.5799 40.6555 29.6995 41.5354 28.6109 41.5354Z" fill="url(#paint1_linear_119_54)"/>
</g>
<defs>
<linearGradient id="paint0_linear_119_54" x1="4.21711" y1="4.01981" x2="26.5852" y2="26.4627" gradientUnits="userSpaceOnUse">
<stop stop-color="#387EB8"/>
<stop offset="1" stop-color="#366994"/>
</linearGradient>
<linearGradient id="paint1_linear_119_54" x1="17.8105" y1="18.3588" x2="41.7923" y2="41.3345" gradientUnits="userSpaceOnUse">
<stop stop-color="#FFE052"/>
<stop offset="1" stop-color="#FFC331"/>
</linearGradient>
<clipPath id="clip0_119_54">
<rect width="45" height="45" fill="white"/>
</clipPath>
</defs>
</svg>
